<?xml version="1.0" encoding="utf-8"?>
<!-- Generator: Adobe Illustrator 24.1.1, SVG Export Plug-In . SVG Version: 6.00 Build 0)  -->
<svg version="1.1" xmlns="http://www.w3.org/2000/svg" xmlns:xlink="http://www.w3.org/1999/xlink" x="0px" y="0px"
	 viewBox="0 0 595.3 595.3" style="enable-background:new 0 0 595.3 595.3;" xml:space="preserve">
<style type="text/css">
	.st0{stroke:#000000;stroke-miterlimit:10;}
	.st1{opacity:0.5;}
	.st2{fill:none;stroke:#FFFFFF;stroke-miterlimit:10;}
	.st3{fill:none;stroke:#FFFFFF;stroke-miterlimit:10;stroke-dasharray:2.0155,2.0155;}
	.st4{fill:none;stroke:#FFFFFF;stroke-miterlimit:10;stroke-dasharray:2.0211,2.0211;}
	.st5{fill:none;stroke:#FFFFFF;stroke-miterlimit:10;stroke-dasharray:1.9997,1.9997;}
	.st6{fill:none;stroke:#FFFFFF;stroke-miterlimit:10;stroke-dasharray:2.0133,2.0133;}
	.st7{fill:none;stroke:#FFFFFF;stroke-miterlimit:10;stroke-dasharray:2.0475,2.0475;}
	.st8{fill:none;stroke:#FFFFFF;stroke-miterlimit:10;stroke-dasharray:2.0676,2.0676;}
	.st9{fill:none;stroke:#FFFFFF;stroke-miterlimit:10;stroke-dasharray:2.0001,2.0001;}
	.st10{fill:none;stroke:#FFFFFF;stroke-miterlimit:10;stroke-dasharray:2.0028,2.0028;}
	.st11{fill:#FFFFFF;}
	.st12{enable-background:new    ;}
	.st13{fill:none;stroke:#FFFFFF;stroke-width:2.5;stroke-miterlimit:10;}
</style>
<g id="Layer_2">
	<rect class="st0" width="595.3" height="581.3"/>
</g>
<g id="Layer_1">
	<g id="Layer_1_1_">
	</g>
	<g id="Layer_8">
		<g class="st1">
			<g>
				<path class="st2" d="M246.2,226.5c-0.1-0.3-0.1-0.7-0.2-1l0.7-0.7"/>
				<polyline class="st3" points="248.2,223.4 268.1,204.5 271.3,188.9 				"/>
				<polyline class="st2" points="271.5,188 271.7,187 272.6,187.4 				"/>
				<polyline class="st4" points="274.4,188.3 276.3,189.2 279.1,188.9 286.3,194.3 295.9,195.7 336.5,194.7 339.5,193.1 				"/>
				<polyline class="st2" points="340.4,192.6 341.3,192.1 342.2,192.5 				"/>
				<path class="st5" d="M344,193.3l2.6,1.2l8.9,12.7c5,1,9.3,1.8,13,2.6c3.5,4.6,5.9,8.9,2.6,11.8l-5.9,0.8"/>
				<path class="st2" d="M364.2,222.6l-1,0.1c0,0.3,0,0.7,0,1"/>
				<path class="st6" d="M363,225.7c-0.6,5.8-2.6,9.8-6.6,11l-12.7-3.3c-5.4,2.2-9.5,3.5-12,3.6"/>
				<path class="st2" d="M330.8,237c-0.4-0.1-0.7-0.2-0.9-0.3l-0.5,0.9"/>
				<path class="st7" d="M328.2,239.3l-2.9,4.6l2.2,11.7c2.4,2.1,5.1,3.9,8.9,5.2"/>
				<path class="st2" d="M337.4,261.1c0.3,0.1,0.6,0.2,1,0.3c0.1,0.3,0.1,0.7,0.2,1"/>
				<path class="st8" d="M338.7,264.4c0,3.3-1,5.9-2.4,8.3c-2.9,10.4-6,19.5-9.6,25.7"/>
				<path class="st2" d="M326.2,299.3c-0.2,0.3-0.4,0.6-0.5,0.9c-0.3,0-0.7,0-1,0.1"/>
				<path class="st9" d="M322.7,300.3c-9.6,0.6-18.6-0.1-26.3-3c-3.4-4.5-5.9-11.2-6-23.1"/>
				<path class="st2" d="M290.4,273.2c0-0.3,0-0.7,0-1c-0.3-0.1-0.6-0.3-0.9-0.4"/>
				<path class="st10" d="M287.7,270.8c-10.9-5.5-21.3-11.9-31.2-19.4c-6.4-8.4-8.6-16.2-10.1-24"/>
			</g>
		</g>
	</g>
	<g id="Layer_6">
		<path class="st2" d="M116.6,158.4c0.8-0.1,1.7-1.8,2.1-2.7l3.5,2.7l3.1-2.6l3.4,2.6l3.3-2.4l2.1,2.2"/>
		<path class="st2" d="M55.3,138.9c0.8-0.1,1.7-1.8,2.1-2.7l3.5,2.7l3.1-2.6l3.4,2.6l3.3-2.4l2.1,2.2"/>
		<path class="st2" d="M137.5,158.4c0.8-0.1,1.7-1.8,2.1-2.7l3.5,2.7l3.1-2.6l3.4,2.6l3.3-2.4l2.1,2.2"/>
		<path class="st2" d="M438.6,157.1c0.8-0.1,1.7-1.8,2.1-2.7l3.5,2.7l3.1-2.6l3.4,2.6l3.3-2.4l2.1,2.2"/>
		<path class="st2" d="M522.5,171.1c0.8-0.1,1.7-1.8,2.1-2.7l3.5,2.7l3.1-2.6l3.4,2.6l3.3-2.4l2.1,2.2"/>
		<path class="st2" d="M502.5,171.1c0.8-0.1,1.7-1.8,2.1-2.7l3.5,2.7l3.1-2.6l3.4,2.6l3.3-2.4l2.1,2.2"/>
		<g id="SVGRepo_bgCarrier">
		</g>
		<g id="SVGRepo_tracerCarrier">
		</g>
		<g id="SVGRepo_iconCarrier">
			<g>
				<path class="st11" d="M174.3,211c-0.2-0.8-0.9-1.2-1.7-1.1c-0.7,0.1-1.1,1-1.3,1.6c0.1-0.7-0.1-1.8-1-2.2
					c-1.4-0.7-2.2,0.6-2.3,0.8s-0.1,0.2,0.1,0.2c0.1,0,0.7-0.2,1.3-0.1l0.3-0.3l0.1,0.4c0.5,0.2,0.9,0.6,1,1.3
					c-0.4-0.5-1-0.8-1.8-0.8c-1.2,0-2.2,1-2.2,2.2c0,0.1,0,0,0,0c0,0.1,0,0.1,0.1,0.1h0.1c0,0,0,0,0.1-0.1c0.2-0.2,0.4-0.3,0.6-0.5
					l0.2-0.4l0.3,0.1c0.4-0.2,0.9-0.3,1.4-0.3c0.3,0,0.6,0,0.9,0.1c-0.7-0.1-1.7,0.3-2.1,1.2c-0.5,1.1,0,2,0.1,2
					c0.1,0.1,0.1,0,0.1-0.1c0-0.2,0.2-0.6,0.4-1.1l-0.1-0.4l0.2,0.1c0.3-0.5,0.7-1.1,1.4-1.5c-0.5,1.1-0.9,2.6-0.3,4.7h1.5
					c0,0-1.5-1.5-0.7-4.4c0.2,0.2,0.4,0.5,0.6,0.9h0.2l-0.1,0.3c0.1,0.3,0.2,0.7,0.2,1.1c0,0.1,0.1,0.2,0.1,0.1
					c0.5-1,0.3-2.1-0.3-2.7c0.4,0.1,0.8,0.5,1,0.9l0.3,0.1l-0.1,0.4c0.2,0.4,0.4,0.9,0.4,1.1c0,0.1,0.1,0.2,0.1,0.1
					c0.4-0.6,0.4-1.9-0.3-2.6c-0.5-0.5-1.4-0.6-2-0.4c0.4-0.6,1.4-0.7,1.4-0.7l0.2-0.4l0.2,0.4l1,0.4c0,0,0.1,0.1,0.1-0.1
					C174.4,211.3,174.4,211.2,174.3,211z"/>
			</g>
		</g>
		<g id="SVGRepo_bgCarrier_1_">
		</g>
		<g id="SVGRepo_tracerCarrier_1_">
		</g>
		<g id="SVGRepo_iconCarrier_1_">
			<g>
				<path class="st11" d="M181.8,217c-0.2-0.8-0.9-1.2-1.7-1.1c-0.7,0.1-1.1,1-1.3,1.6c0.1-0.7-0.1-1.8-1-2.2
					c-1.4-0.7-2.2,0.6-2.3,0.8s-0.1,0.2,0.1,0.2c0.1,0,0.7-0.2,1.3-0.1l0.3-0.3l0.1,0.4c0.5,0.2,0.9,0.6,1,1.3
					c-0.4-0.5-1-0.8-1.8-0.8c-1.2,0-2.2,1-2.2,2.2c0,0.1,0,0,0,0c0,0.1,0,0.1,0.1,0.1h0.1c0,0,0,0,0.1-0.1c0.2-0.2,0.4-0.3,0.6-0.5
					l0.2-0.4l0.3,0.1c0.4-0.2,0.9-0.3,1.4-0.3c0.3,0,0.6,0,0.9,0.1c-0.7-0.1-1.7,0.3-2.1,1.2c-0.5,1.1,0,2,0.1,2
					c0.1,0.1,0.1,0,0.1-0.1c0-0.2,0.2-0.6,0.4-1.1l-0.1-0.4l0.2,0.1c0.3-0.5,0.7-1.1,1.4-1.5c-0.5,1.1-0.9,2.6-0.3,4.7h1.5
					c0,0-1.5-1.5-0.7-4.4c0.2,0.2,0.4,0.5,0.6,0.9h0.2l-0.1,0.3c0.1,0.3,0.2,0.7,0.2,1.1c0,0.1,0.1,0.2,0.1,0.1
					c0.5-1,0.3-2.1-0.3-2.7c0.4,0.1,0.8,0.5,1,0.9l0.3,0.1l-0.1,0.4c0.2,0.4,0.4,0.9,0.4,1.1c0,0.1,0.1,0.2,0.1,0.1
					c0.4-0.6,0.4-1.9-0.3-2.6c-0.5-0.5-1.4-0.6-2-0.4c0.4-0.6,1.4-0.7,1.4-0.7l0.2-0.4l0.2,0.4l1,0.4c0,0,0.1,0.1,0.1-0.1
					C181.8,217.3,181.8,217.2,181.8,217z"/>
			</g>
		</g>
		<g id="SVGRepo_bgCarrier_2_">
		</g>
		<g id="SVGRepo_tracerCarrier_2_">
		</g>
		<g id="SVGRepo_iconCarrier_2_">
			<g>
				<path class="st11" d="M190.5,221.5c-0.2-0.8-0.9-1.2-1.7-1.1c-0.7,0.1-1.1,1-1.3,1.6c0.1-0.7-0.1-1.8-1-2.2
					c-1.4-0.7-2.2,0.6-2.3,0.8s-0.1,0.2,0.1,0.2c0.1,0,0.7-0.2,1.3-0.1l0.3-0.3l0.1,0.4c0.5,0.2,0.9,0.6,1,1.3
					c-0.4-0.5-1-0.8-1.8-0.8c-1.2,0-2.2,1-2.2,2.2c0,0.1,0,0,0,0c0,0.1,0,0.1,0.1,0.1h0.1c0,0,0,0,0.1-0.1c0.2-0.2,0.4-0.3,0.6-0.5
					l0.2-0.4l0.3,0.1c0.4-0.2,0.9-0.3,1.4-0.3c0.3,0,0.6,0,0.9,0.1c-0.7-0.1-1.7,0.3-2.1,1.2c-0.5,1.1,0,2,0.1,2
					c0.1,0.1,0.1,0,0.1-0.1c0-0.2,0.2-0.6,0.4-1.1l-0.1-0.4l0.2,0.1c0.3-0.5,0.7-1.1,1.4-1.5c-0.5,1.1-0.9,2.6-0.3,4.7h1.5
					c0,0-1.5-1.5-0.7-4.4c0.2,0.2,0.4,0.5,0.6,0.9h0.2l-0.1,0.3c0.1,0.3,0.2,0.7,0.2,1.1c0,0.1,0.1,0.2,0.1,0.1
					c0.5-1,0.3-2.1-0.3-2.7c0.4,0.1,0.8,0.5,1,0.9l0.3,0.1l-0.1,0.4c0.2,0.4,0.4,0.9,0.4,1.1c0,0.1,0.1,0.2,0.1,0.1
					c0.4-0.6,0.4-1.9-0.3-2.6c-0.5-0.5-1.4-0.6-2-0.4c0.4-0.6,1.4-0.7,1.4-0.7l0.2-0.4l0.2,0.4l1,0.4c0,0,0.1,0.1,0.1-0.1
					C190.6,221.8,190.6,221.7,190.5,221.5z"/>
			</g>
		</g>
		<g id="SVGRepo_bgCarrier_3_">
		</g>
		<g id="SVGRepo_tracerCarrier_3_">
		</g>
		<g id="SVGRepo_iconCarrier_3_">
			<g>
				<path class="st11" d="M166.8,221c-0.2-0.8-0.9-1.2-1.7-1.1c-0.7,0.1-1.1,1-1.3,1.6c0.1-0.7-0.1-1.8-1-2.2
					c-1.4-0.7-2.2,0.6-2.3,0.8s-0.1,0.2,0.1,0.2c0.1,0,0.7-0.2,1.3-0.1l0.3-0.3l0.1,0.4c0.5,0.2,0.9,0.6,1,1.3
					c-0.4-0.5-1-0.8-1.8-0.8c-1.2,0-2.2,1-2.2,2.2c0,0.1,0,0,0,0c0,0.1,0,0.1,0.1,0.1h0.1c0,0,0,0,0.1-0.1c0.2-0.2,0.4-0.3,0.6-0.5
					l0.2-0.4l0.3,0.1c0.4-0.2,0.9-0.3,1.4-0.3c0.3,0,0.6,0,0.9,0.1c-0.7-0.1-1.7,0.3-2.1,1.2c-0.5,1.1,0,2,0.1,2
					c0.1,0.1,0.1,0,0.1-0.1c0-0.2,0.2-0.6,0.4-1.1l-0.1-0.4l0.2,0.1c0.3-0.5,0.7-1.1,1.4-1.5c-0.5,1.1-0.9,2.6-0.3,4.7h1.5
					c0,0-1.5-1.5-0.7-4.4c0.2,0.2,0.4,0.5,0.6,0.9h0.2l-0.1,0.3c0.1,0.3,0.2,0.7,0.2,1.1c0,0.1,0.1,0.2,0.1,0.1
					c0.5-1,0.3-2.1-0.3-2.7c0.4,0.1,0.8,0.5,1,0.9l0.3,0.1l-0.1,0.4c0.2,0.4,0.4,0.9,0.4,1.1c0,0.1,0.1,0.2,0.1,0.1
					c0.4-0.6,0.4-1.9-0.3-2.6c-0.5-0.5-1.4-0.6-2-0.4c0.4-0.6,1.4-0.7,1.4-0.7l0.2-0.4l0.2,0.4l1,0.4c0,0,0.1,0.1,0.1-0.1
					C166.9,221.3,166.9,221.1,166.8,221z"/>
			</g>
		</g>
		<g id="SVGRepo_bgCarrier_4_">
		</g>
		<g id="SVGRepo_tracerCarrier_4_">
		</g>
		<g id="SVGRepo_iconCarrier_4_">
			<g>
				<path class="st11" d="M175,227.7c-0.2-0.8-0.9-1.2-1.7-1.1c-0.7,0.1-1.1,1-1.3,1.6c0.1-0.7-0.1-1.8-1-2.2
					c-1.4-0.7-2.2,0.6-2.3,0.8s-0.1,0.2,0.1,0.2c0.1,0,0.7-0.2,1.3-0.1l0.3-0.3l0.1,0.4c0.5,0.2,0.9,0.6,1,1.3
					c-0.4-0.5-1-0.8-1.8-0.8c-1.2,0-2.2,1-2.2,2.2c0,0.1,0,0,0,0c0,0.1,0,0.1,0.1,0.1h0.1c0,0,0,0,0.1-0.1c0.2-0.2,0.4-0.3,0.6-0.5
					l0.2-0.4l0.3,0.1c0.4-0.2,0.9-0.3,1.4-0.3c0.3,0,0.6,0,0.9,0.1c-0.7-0.1-1.7,0.3-2.1,1.2c-0.5,1.1,0,2,0.1,2
					c0.1,0.1,0.1,0,0.1-0.1c0-0.2,0.2-0.6,0.4-1.1l-0.1-0.4l0.2,0.1c0.3-0.5,0.7-1.1,1.4-1.5c-0.5,1.1-0.9,2.6-0.3,4.7h1.5
					c0,0-1.5-1.5-0.7-4.4c0.2,0.2,0.4,0.5,0.6,0.9h0.2l-0.1,0.3c0.1,0.3,0.2,0.7,0.2,1.1c0,0.1,0.1,0.2,0.1,0.1
					c0.5-1,0.3-2.1-0.3-2.7c0.4,0.1,0.8,0.5,1,0.9l0.3,0.1l-0.1,0.4c0.2,0.4,0.4,0.9,0.4,1.1c0,0.1,0.1,0.2,0.1,0.1
					c0.4-0.6,0.4-1.9-0.3-2.6c-0.5-0.5-1.4-0.6-2-0.4c0.4-0.6,1.4-0.7,1.4-0.7l0.2-0.4l0.2,0.4l1,0.4c0,0,0.1,0.1,0.1-0.1
					C175,228,175,227.9,175,227.7z"/>
			</g>
		</g>
		<g id="SVGRepo_bgCarrier_5_">
		</g>
		<g id="SVGRepo_tracerCarrier_5_">
		</g>
		<g id="SVGRepo_iconCarrier_5_">
			<g>
				<path class="st11" d="M184.5,231.7c-0.2-0.8-0.9-1.2-1.7-1.1c-0.7,0.1-1.1,1-1.3,1.6c0.1-0.7-0.1-1.8-1-2.2
					c-1.4-0.7-2.2,0.6-2.3,0.8s-0.1,0.2,0.1,0.2c0.1,0,0.7-0.2,1.3-0.1l0.3-0.3l0.1,0.4c0.5,0.2,0.9,0.6,1,1.3
					c-0.4-0.5-1-0.8-1.8-0.8c-1.2,0-2.2,1-2.2,2.2c0,0.1,0,0,0,0c0,0.1,0,0.1,0.1,0.1h0.1c0,0,0,0,0.1-0.1c0.2-0.2,0.4-0.3,0.6-0.5
					l0.2-0.4l0.3,0.1c0.4-0.2,0.9-0.3,1.4-0.3c0.3,0,0.6,0,0.9,0.1c-0.7-0.1-1.7,0.3-2.1,1.2c-0.5,1.1,0,2,0.1,2
					c0.1,0.1,0.1,0,0.1-0.1c0-0.2,0.2-0.6,0.4-1.1l-0.1-0.4l0.2,0.1c0.3-0.5,0.7-1.1,1.4-1.5c-0.5,1.1-0.9,2.6-0.3,4.7h1.5
					c0,0-1.5-1.5-0.7-4.4c0.2,0.2,0.4,0.5,0.6,0.9h0.2l-0.1,0.3c0.1,0.3,0.2,0.7,0.2,1.1c0,0.1,0.1,0.2,0.1,0.1
					c0.5-1,0.3-2.1-0.3-2.7c0.4,0.1,0.8,0.5,1,0.9l0.3,0.1l-0.1,0.4c0.2,0.4,0.4,0.9,0.4,1.1c0,0.1,0.1,0.2,0.1,0.1
					c0.4-0.6,0.4-1.9-0.3-2.6c-0.5-0.5-1.4-0.6-2-0.4c0.4-0.6,1.4-0.7,1.4-0.7l0.2-0.4l0.2,0.4l1,0.4c0,0,0.1,0.1,0.1-0.1
					C184.6,232,184.6,231.9,184.5,231.7z"/>
			</g>
		</g>
	</g>
	<g id="Layer_7">
		<g id="SVGRepo_bgCarrier_6_">
		</g>
		<g id="SVGRepo_tracerCarrier_6_">
		</g>
		<g id="SVGRepo_iconCarrier_6_">
			<path class="st11" d="M270.5,336.5c-3.2,0-6.1-1.1-7.8-2.9c-1.1-1.1-1.6-2.5-1.5-3.9s0.9-2.4,1.9-3.5c0.7-0.8,0.9-1.3,0.8-1.5
				c-0.1-0.3-0.7-0.5-1-0.6c-2.2,0-4.1-0.7-5.1-1.9c-0.6-0.6-0.8-1.4-0.7-2.2c0.3-2,3-3.6,6.3-3.6s5.8,1.6,5.9,3.7
				c0,0.8-0.3,1.5-0.8,2c-0.6,0.7-0.7,1.1-0.7,1.2c0,0,0.2,0.5,2.2,0.5c4.8,0.1,8.7,2.6,9.2,5.8c0.2,1.4-0.2,2.9-1.2,3.9
				C276.4,335.4,273.6,336.5,270.5,336.5L270.5,336.5z M263.4,318.1c-2.5,0-4.4,1.1-4.6,2.1c0,0.3,0.1,0.6,0.3,0.9
				c0.7,0.8,2.2,1.3,3.8,1.3h0.1c0.2,0,1.9,0.3,2.4,1.7c0.3,0.9,0,2-1.1,3.2c-0.9,1-1.4,1.6-1.5,2.5c0,1,0.3,1.9,1,2.6
				c1.4,1.5,3.8,2.4,6.5,2.4s5-0.9,6.3-2.4c0.6-0.7,0.9-1.6,0.8-2.5c-0.4-2.4-3.6-4.2-7.5-4.3c-2.1-0.1-3.3-0.6-3.7-1.6
				c-0.4-0.9,0-1.9,1-3c0.2-0.2,0.4-0.6,0.4-0.9C267.5,319.1,265.8,318.1,263.4,318.1L263.4,318.1z M274.8,318.3l-1.4-3.2l-1.2,3.2
				h0.9v1h0.8v-1H274.8z M278,323l-1.9-4.4l-1.6,4.4h1.2v1.4h1.2V323H278z M260.1,329.2l-1.9-4.4l-1.6,4.4h1.2v1.4h1.2v-1.4H260.1z
				 M261.5,334.8l-1.5-3.6l-1.3,3.6h1v1.1h0.9v-1.1H261.5z M272.3,321.8l-1.2-2.9l-1.1,2.9h0.8v0.9h0.8v-0.9H272.3L272.3,321.8z
				 M271.1,333.9c-0.4,0-0.7-0.3-0.7-0.7s0.3-0.7,0.7-0.7l0,0c2.1,0,4-1,4-2.2c0-0.3-0.1-0.6-0.3-0.9c-0.2-0.3-0.2-0.8,0.1-1
				s0.8-0.2,1,0.1l0,0c0.4,0.5,0.6,1.1,0.6,1.7C276.6,332.3,274.2,333.9,271.1,333.9L271.1,333.9z"/>
		</g>
	</g>
	<g id="Layer_3">
		<path class="st2" d="M150.2,183.2c11.2,24.4,14.7,34.8,25.2,42c13.1,7,37.5,4.9,37.5,4.9c10.2,0,26.6-15.2,32.2-13.1
			c19.9,6.5,4.1,15,25.4,35.3c12.9,9.9,23.7,12.7,27.4,23c1.8,8,4.4,14.2,12.8,17.5c40.3,4.9,21.3,8.2,39.8,13.7
			c11.5,1.6,21.9-0.9,31.9-5.1c-3-15.6-1-28.2,18.2-30.5"/>
	</g>
	<g id="Layer_4">
		<path class="st2" d="M297.8,443.1c4.4,1.4,11.7,2.9,14.1,0c3.9-4,16.6-27.3,20.6-26.7c14.6-0.3,39.4,23.8,41.1,20.1
			c15-19.9,23.5-17.5,22.6-20.1c-0.4-2.9-14.6-18.4-15.4-38.6c0-16.5,25.2,7.5,15.4-51.9c-0.3-5.7-4.6-13.6-14.1-24.5"/>
	</g>
	<g id="Layer_5">
		<path class="st2" d="M408.6,317.7c-2.1,0-7.1,9.3-12.3,8.1"/>
	</g>
	<g id="Layer_9">
		<path class="st2" d="M46,191.1h54.5l51.9-8.2l3.6-1.7l8.4,0.9l3.1-2.7l4.5,1l10.3-4.6l2.9,0.9h6.5c0,0,13.2-2.4,13.2-2.9
			s25.5,0,25.5,0l7.2,3.3l11.5-0.5l7.7,5.9h4.3l4.1,4.4l6.5,0.7l4.6,2.2l2.7-0.3l7.2,5.5l9.6,1.4l40.6-1.1l6.2-2.1l8.7,4.1l8.2-1.9
			c3.1-0.7,4.9-3.8,7.7-4.1c0,0,2.8-0.3,3.6-1.1c0.5-0.9,1.2-1.8,1.2-1.8c1.9-1.3,8.8-1,13.9-1.4l16.8,3.8
			c19.7,4.1,42.3,5.1,66.3,4.5c9.8-2.4,19.2-3.6,27.9-3.4c23.8,3.1,47.5,7.6,71.3,13.2"/>
	</g>
	<g id="Layer_10">
		<g class="st12">
			<path class="st11" d="M281.3,227.1l2,6.6h-0.7l-1-3.2c-0.7,0.3-1.4,0.8-1.9,1.3c-0.6,0.6-1,1.2-1.4,1.9H278l3.1-6.6H281.3z
				 M281,228.2l-1.8,3.7c0.7-0.8,1.5-1.3,2.4-1.7L281,228.2z"/>
			<path class="st11" d="M288.5,228.7l0.3,0.2l-0.4,4.9c0,0.3-0.1,0.6-0.2,0.9c-0.1,0.3-0.3,0.5-0.5,0.7s-0.5,0.4-0.7,0.5
				c-0.3,0.1-0.6,0.2-0.9,0.2H284v-0.3h1.9c0.2,0,0.4,0,0.6-0.1s0.4-0.2,0.5-0.3c0.2-0.1,0.3-0.3,0.4-0.5s0.2-0.4,0.2-0.6l0.1-1
				c-0.2,0.2-0.5,0.3-0.7,0.5c-0.3,0.1-0.6,0.2-0.9,0.2s-0.6-0.1-0.9-0.2c-0.3-0.1-0.5-0.3-0.7-0.5s-0.3-0.4-0.4-0.7
				s-0.1-0.6-0.1-0.9v-0.6c0-0.3,0.1-0.6,0.3-0.9c0.1-0.3,0.3-0.5,0.5-0.7s0.5-0.4,0.8-0.5s0.6-0.2,0.9-0.2s0.7,0.1,0.9,0.2
				c0.3,0.1,0.5,0.3,0.7,0.6L288.5,228.7z M287.8,231.9l0.1-1.3c0-0.2,0-0.4-0.1-0.6c-0.1-0.2-0.2-0.4-0.3-0.5
				c-0.1-0.1-0.3-0.3-0.5-0.3c-0.2-0.1-0.4-0.1-0.6-0.1s-0.4,0-0.6,0.1s-0.4,0.2-0.5,0.3c-0.2,0.1-0.3,0.3-0.4,0.5s-0.2,0.4-0.2,0.6
				l-0.1,1.3c0,0.2,0,0.4,0.1,0.6c0.1,0.2,0.2,0.4,0.3,0.5c0.1,0.1,0.3,0.3,0.5,0.3c0.2,0.1,0.4,0.1,0.6,0.1s0.4,0,0.6-0.1
				s0.4-0.2,0.5-0.3c0.2-0.1,0.3-0.3,0.4-0.5C287.7,232.3,287.8,232.1,287.8,231.9z"/>
			<path class="st11" d="M292.1,228.7L292.1,228.7v0.3H292c-0.2,0-0.4,0-0.6,0.1s-0.4,0.2-0.5,0.3s-0.3,0.3-0.4,0.5
				s-0.1,0.4-0.2,0.6l-0.3,3.2h-0.7l0.4-4.8l-0.5-0.1v-0.2l1.2,0.3v0.4c0.2-0.2,0.5-0.4,0.8-0.5
				C291.5,228.7,291.8,228.7,292.1,228.7z"/>
			<path class="st11" d="M292.4,231.5v-0.6c0-0.3,0.1-0.6,0.3-0.9c0.1-0.3,0.3-0.5,0.5-0.7s0.5-0.4,0.8-0.5s0.6-0.2,0.9-0.2
				s0.6,0.1,0.9,0.2c0.3,0.1,0.5,0.3,0.7,0.5s0.3,0.4,0.4,0.7s0.1,0.6,0.1,0.9v0.6c0,0.3-0.1,0.6-0.3,0.9c-0.1,0.3-0.3,0.5-0.5,0.7
				s-0.5,0.4-0.8,0.5s-0.6,0.2-0.9,0.2s-0.6-0.1-0.9-0.2c-0.3-0.1-0.5-0.3-0.7-0.5s-0.3-0.4-0.4-0.7
				C292.4,232.1,292.4,231.8,292.4,231.5z M293.2,230.5l-0.1,1.3c0,0.2,0,0.4,0.1,0.6c0.1,0.2,0.2,0.4,0.3,0.5
				c0.1,0.1,0.3,0.3,0.5,0.3c0.2,0.1,0.4,0.1,0.6,0.1s0.4,0,0.6-0.1s0.4-0.2,0.5-0.3c0.2-0.1,0.3-0.3,0.4-0.5s0.2-0.4,0.2-0.6
				l0.1-1.3c0-0.2,0-0.4-0.1-0.6c-0.1-0.2-0.2-0.4-0.3-0.5c-0.1-0.1-0.3-0.3-0.5-0.3c-0.2-0.1-0.4-0.1-0.6-0.1s-0.4,0-0.6,0.1
				s-0.4,0.2-0.5,0.3c-0.2,0.1-0.3,0.3-0.4,0.5C293.2,230.1,293.2,230.3,293.2,230.5z"/>
		</g>
		<g class="st12">
			<path class="st11" d="M278.4,237.9h4.7v0.3h-2l-0.6,6.3h-0.7l0.6-6.3h-2V237.9z"/>
			<path class="st11" d="M282.7,242.3v-0.6c0-0.3,0.1-0.6,0.3-0.9c0.1-0.3,0.3-0.5,0.5-0.7s0.5-0.4,0.8-0.5s0.6-0.2,0.9-0.2
				s0.6,0.1,0.9,0.2c0.3,0.1,0.5,0.3,0.7,0.5s0.3,0.4,0.4,0.7s0.1,0.6,0.1,0.9v0.6c0,0.3-0.1,0.6-0.3,0.9c-0.1,0.3-0.3,0.5-0.5,0.7
				s-0.5,0.4-0.8,0.5s-0.6,0.2-0.9,0.2s-0.6-0.1-0.9-0.2c-0.3-0.1-0.5-0.3-0.7-0.5s-0.3-0.4-0.4-0.7S282.6,242.6,282.7,242.3z
				 M283.4,241.3l-0.1,1.3c0,0.2,0,0.4,0.1,0.6c0.1,0.2,0.2,0.4,0.3,0.5c0.1,0.1,0.3,0.3,0.5,0.3c0.2,0.1,0.4,0.1,0.6,0.1
				s0.4,0,0.6-0.1s0.4-0.2,0.5-0.3c0.2-0.1,0.3-0.3,0.4-0.5s0.2-0.4,0.2-0.6l0.1-1.3c0-0.2,0-0.4-0.1-0.6c-0.1-0.2-0.2-0.4-0.3-0.5
				c-0.1-0.1-0.3-0.3-0.5-0.3c-0.2-0.1-0.4-0.1-0.6-0.1s-0.4,0-0.6,0.1s-0.4,0.2-0.5,0.3c-0.2,0.1-0.3,0.3-0.4,0.5
				S283.5,241.1,283.4,241.3z"/>
			<path class="st11" d="M292.1,239.5l-0.4,4.9l-0.3,0.2l-0.1-0.7c-0.2,0.2-0.4,0.4-0.7,0.5c-0.3,0.1-0.5,0.2-0.8,0.2
				s-0.5-0.1-0.7-0.2c-0.2-0.1-0.4-0.2-0.6-0.4s-0.3-0.4-0.4-0.6c-0.1-0.2-0.1-0.5-0.1-0.7l0.3-3.1h0.7l-0.3,3.5
				c0,0.2,0,0.3,0.1,0.5c0.1,0.1,0.1,0.3,0.2,0.4c0.1,0.1,0.2,0.2,0.4,0.3c0.1,0.1,0.3,0.1,0.5,0.1s0.3,0,0.5-0.1s0.3-0.2,0.4-0.3
				s0.2-0.2,0.3-0.4c0.1-0.2,0.1-0.3,0.1-0.5l0.3-3.5L292.1,239.5L292.1,239.5z"/>
			<path class="st11" d="M295.5,239.5L295.5,239.5v0.3h-0.1c-0.2,0-0.4,0-0.6,0.1s-0.4,0.2-0.5,0.3s-0.3,0.3-0.4,0.5
				s-0.1,0.4-0.2,0.6l-0.3,3.2h-0.7l0.4-4.8l-0.5-0.1v-0.2l1.2,0.3v0.4c0.2-0.2,0.5-0.4,0.8-0.5
				C294.9,239.6,295.2,239.5,295.5,239.5z"/>
		</g>
		<g class="st12">
			<path class="st11" d="M403.7,262.2h0.7v0.3h-0.9c-0.3,0-0.5-0.1-0.7-0.2s-0.4-0.3-0.5-0.5l-0.9-2.1c0-0.1-0.1-0.2-0.2-0.3
				c-0.1-0.1-0.2-0.1-0.3-0.1h-0.5V259h0.7c0.2,0,0.4,0,0.6,0.1s0.3,0.2,0.4,0.4c0.3-0.2,0.5-0.4,0.7-0.6c0.2-0.3,0.3-0.6,0.3-0.9
				s0-0.5-0.1-0.7s-0.2-0.4-0.3-0.6c-0.2-0.2-0.3-0.3-0.5-0.4s-0.4-0.1-0.7-0.1h-1.1l-0.6,6.3H399l0.6-6.3h-0.5v-0.3h2.7
				c0.3,0,0.6,0.1,0.8,0.2c0.2,0.1,0.5,0.3,0.6,0.5c0.2,0.2,0.3,0.4,0.4,0.7c0.1,0.3,0.1,0.5,0.1,0.8c0,0.2-0.1,0.4-0.1,0.6
				s-0.2,0.4-0.3,0.6c-0.1,0.2-0.3,0.3-0.4,0.4c-0.2,0.1-0.4,0.2-0.5,0.3l0.8,1.9c0,0.1,0.1,0.2,0.2,0.3
				C403.4,262.1,403.5,262.2,403.7,262.2z"/>
			<path class="st11" d="M408.8,257.4l-0.1,1.6c0,0.3-0.1,0.5-0.3,0.7s-0.4,0.3-0.7,0.4l-1.6,0.4v-0.3l1.1-0.3
				c0.2,0,0.4-0.2,0.5-0.3c0.1-0.2,0.2-0.3,0.2-0.6l0.1-1.4h-1.2c-0.2,0-0.3,0-0.5,0.1s-0.3,0.2-0.4,0.3c-0.1,0.1-0.2,0.2-0.3,0.4
				c-0.1,0.2-0.1,0.3-0.1,0.5l-0.2,2c0,0.2,0,0.3,0,0.5c0.1,0.1,0.1,0.3,0.2,0.4s0.2,0.2,0.4,0.3c0.1,0.1,0.3,0.1,0.5,0.1h1.6v0.3
				h-1.6c-0.3,0-0.5,0-0.7-0.1s-0.4-0.2-0.6-0.4c-0.2-0.2-0.3-0.4-0.4-0.6s-0.1-0.5-0.1-0.7l0.1-1.2c0-0.3,0.1-0.5,0.2-0.7
				s0.3-0.4,0.5-0.6s0.4-0.3,0.6-0.4s0.5-0.2,0.8-0.2h2V257.4z"/>
			<path class="st11" d="M410.1,258.6c0,0.2,0,0.4,0.2,0.6s0.3,0.3,0.5,0.3l1.2,0.2c0.2,0,0.3,0.1,0.4,0.2s0.2,0.2,0.3,0.3
				c0.1,0.1,0.2,0.3,0.2,0.4s0.1,0.3,0,0.5c0,0.2-0.1,0.4-0.2,0.5s-0.2,0.3-0.3,0.4s-0.3,0.2-0.5,0.3c-0.2,0.1-0.4,0.1-0.5,0.1h-2.1
				v-0.3h1.9c0.1,0,0.2,0,0.4-0.1c0.1,0,0.2-0.1,0.3-0.2s0.2-0.2,0.2-0.3c0.1-0.1,0.1-0.2,0.1-0.4c0-0.2,0-0.4-0.2-0.6
				c-0.1-0.2-0.3-0.3-0.5-0.3l-1.1-0.2c-0.2,0-0.3-0.1-0.4-0.2s-0.2-0.2-0.3-0.3s-0.2-0.3-0.2-0.4s-0.1-0.3,0-0.5
				c0-0.2,0.1-0.4,0.2-0.5s0.2-0.3,0.3-0.4c0.1-0.1,0.3-0.2,0.5-0.3c0.2-0.1,0.4-0.1,0.5-0.1h2.1v0.3h-1.9c-0.1,0-0.2,0-0.4,0.1
				s-0.2,0.1-0.3,0.2s-0.2,0.2-0.2,0.3C410.2,258.4,410.2,258.5,410.1,258.6z"/>
			<path class="st11" d="M413.6,262.5l0.4-5h0.7l-0.4,5H413.6z M414.5,256.7l-0.4-0.8h0.7l-0.1,0.8H414.5z"/>
			<path class="st11" d="M417.8,257.4c0.3,0,0.6,0.1,0.8,0.2c0.3,0.1,0.5,0.3,0.7,0.5l0.2-2.2h1.2v0.3h-0.5l-0.5,6.2l-0.3,0.2
				l-0.2-0.8c-0.2,0.3-0.5,0.5-0.8,0.6s-0.6,0.2-1,0.2c-0.3,0-0.6-0.1-0.9-0.2s-0.5-0.3-0.7-0.5s-0.3-0.4-0.4-0.7
				c-0.1-0.3-0.1-0.6-0.1-0.9v-0.6c0-0.3,0.1-0.6,0.3-0.9c0.1-0.3,0.3-0.5,0.5-0.7s0.5-0.4,0.8-0.5
				C417.2,257.5,417.5,257.4,417.8,257.4z M416.1,259.3l-0.1,1.3c0,0.2,0,0.4,0.1,0.6s0.2,0.4,0.3,0.5c0.1,0.1,0.3,0.3,0.5,0.3
				c0.2,0.1,0.4,0.1,0.6,0.1s0.4,0,0.6-0.1s0.4-0.2,0.5-0.3c0.2-0.1,0.3-0.3,0.4-0.5s0.2-0.4,0.2-0.6l0.1-1.3c0-0.2,0-0.4-0.1-0.6
				s-0.2-0.4-0.3-0.5c-0.1-0.1-0.3-0.3-0.5-0.3c-0.2-0.1-0.4-0.1-0.6-0.1s-0.4,0-0.6,0.1s-0.4,0.2-0.5,0.3c-0.2,0.1-0.3,0.3-0.4,0.5
				C416.1,258.9,416.1,259.1,416.1,259.3z"/>
			<path class="st11" d="M424.8,257.4l-0.1,1.6c0,0.3-0.1,0.5-0.3,0.7s-0.4,0.3-0.7,0.4l-1.6,0.4v-0.3l1.1-0.3
				c0.2,0,0.4-0.2,0.5-0.3c0.1-0.2,0.2-0.3,0.2-0.6l0.1-1.4h-1.2c-0.2,0-0.3,0-0.5,0.1s-0.3,0.2-0.4,0.3c-0.1,0.1-0.2,0.2-0.3,0.4
				c-0.1,0.2-0.1,0.3-0.1,0.5l-0.2,2c0,0.2,0,0.3,0,0.5c0.1,0.1,0.1,0.3,0.2,0.4s0.2,0.2,0.4,0.3c0.1,0.1,0.3,0.1,0.5,0.1h1.6v0.3
				h-1.6c-0.3,0-0.5,0-0.7-0.1s-0.4-0.2-0.6-0.4c-0.2-0.2-0.3-0.4-0.4-0.6s-0.1-0.5-0.1-0.7l0.1-1.2c0-0.3,0.1-0.5,0.2-0.7
				s0.3-0.4,0.5-0.6s0.4-0.3,0.6-0.4s0.5-0.2,0.8-0.2h2V257.4z"/>
			<path class="st11" d="M429.7,258.1l-0.4,4.4h-0.7l0.4-4.5c-0.1-0.1-0.2-0.1-0.4-0.2c-0.1,0-0.3-0.1-0.4-0.1H428
				c-0.2,0-0.4,0-0.6,0.1s-0.4,0.2-0.5,0.3c-0.1,0.1-0.3,0.3-0.4,0.5s-0.1,0.4-0.2,0.6l-0.3,3.2h-0.7l0.4-4.8l-0.5-0.1v-0.2l1.2,0.3
				v0.4c0.2-0.2,0.5-0.4,0.8-0.5s0.6-0.2,0.9-0.2s0.6,0.1,0.8,0.2C429.3,257.7,429.5,257.9,429.7,258.1z"/>
			<path class="st11" d="M432.5,257.4v0.3h-0.7l-0.3,3.9l-0.3,0.6h0.9v0.3h-1.3l0.4-4.8h-0.7v-0.3h0.7l0.1-1.6l0.7-0.3l-0.2,1.9
				H432.5z"/>
			<path class="st11" d="M432.7,262.5l0.4-5h0.7l-0.4,5H432.7z M433.6,256.7l-0.4-0.8h0.7l-0.1,0.8H433.6z"/>
			<path class="st11" d="M435.1,257.4h1.7c0.2,0,0.4,0,0.6,0.1s0.3,0.2,0.5,0.3c0.1,0.1,0.2,0.3,0.3,0.5c0.1,0.2,0.1,0.4,0.1,0.6
				l-0.3,3.3l-0.3,0.2l-0.1-0.5c-0.2,0.2-0.3,0.3-0.5,0.4s-0.4,0.1-0.7,0.1h-1c-0.3,0-0.5-0.1-0.7-0.3s-0.3-0.4-0.4-0.7l-0.1-0.4
				c0-0.1,0-0.1,0-0.2s0-0.1,0-0.2c0-0.2,0.1-0.3,0.1-0.5c0.1-0.2,0.2-0.3,0.3-0.4c0.1-0.1,0.2-0.3,0.4-0.4c0.2-0.1,0.3-0.2,0.5-0.2
				l0.9-0.2c0.1,0,0.3-0.1,0.4-0.1c0.3,0,0.5,0.1,0.7,0.2v-0.5c0-0.1,0-0.2,0-0.4c0-0.1-0.1-0.2-0.2-0.3s-0.2-0.1-0.3-0.2
				c-0.1,0-0.2-0.1-0.3-0.1H435L435.1,257.4z M435.4,262.2h1c0.1,0,0.2,0,0.4-0.1s0.2-0.1,0.3-0.2c0.1-0.1,0.2-0.2,0.2-0.3
				c0.1-0.1,0.1-0.2,0.1-0.4l0.1-1.1c0-0.1,0-0.2,0-0.4s-0.1-0.2-0.2-0.3s-0.2-0.1-0.3-0.2c-0.1,0-0.2-0.1-0.3-0.1
				c-0.1,0-0.2,0-0.2,0l-0.6,0.2c-0.3,0.1-0.5,0.2-0.6,0.4s-0.3,0.4-0.3,0.7c0,0.1,0,0.2,0,0.3l0.1,1c0,0.1,0.1,0.2,0.1,0.2
				C435.2,262.1,435.3,262.2,435.4,262.2z"/>
			<path class="st11" d="M440.1,255.8l-0.5,5.7l-0.3,0.6h0.9v0.3h-1.3l0.6-6.3H439v-0.3H440.1z"/>
		</g>
		<g class="st12">
			<path class="st11" d="M341.1,387.7L341.1,387.7c0.2,0,0.5,0,0.7-0.1s0.4-0.2,0.6-0.3c0.2-0.1,0.4-0.3,0.5-0.4
				c0.2-0.2,0.3-0.4,0.4-0.6l0.5,0.2c-0.3,0.4-0.7,0.8-1.1,1.1c-0.5,0.3-1,0.4-1.5,0.4H341c-0.4,0-0.8-0.1-1.1-0.2
				c-0.3-0.2-0.6-0.4-0.9-0.6c-0.2-0.3-0.4-0.6-0.5-0.9s-0.2-0.7-0.1-1.1l0.1-1c0-0.4,0.1-0.8,0.3-1.1c0.2-0.3,0.4-0.6,0.7-0.9
				c0.3-0.3,0.6-0.5,1-0.6s0.7-0.2,1.1-0.2h0.2c0.5,0,1,0.1,1.4,0.4s0.7,0.6,0.9,1.1l-0.5,0.2c-0.1-0.2-0.2-0.4-0.3-0.6
				s-0.3-0.3-0.4-0.4s-0.4-0.2-0.6-0.3c-0.2-0.1-0.4-0.1-0.7-0.1l0,0c-0.3,0-0.6,0.1-0.9,0.2s-0.5,0.3-0.8,0.5s-0.4,0.4-0.5,0.7
				c-0.1,0.3-0.2,0.6-0.3,0.9l-0.1,1.5c0,0.3,0,0.6,0.1,0.9s0.2,0.5,0.4,0.7c0.2,0.2,0.4,0.4,0.7,0.5
				C340.5,387.6,340.8,387.7,341.1,387.7z"/>
			<path class="st11" d="M344.6,385.7v-0.6c0-0.3,0.1-0.6,0.3-0.9c0.1-0.3,0.3-0.5,0.5-0.7s0.5-0.4,0.8-0.5s0.6-0.2,0.9-0.2
				s0.6,0.1,0.9,0.2s0.5,0.3,0.7,0.5s0.3,0.4,0.4,0.7c0.1,0.3,0.1,0.6,0.1,0.9v0.6c0,0.3-0.1,0.6-0.3,0.9c-0.1,0.3-0.3,0.5-0.5,0.7
				s-0.5,0.4-0.8,0.5s-0.6,0.2-0.9,0.2s-0.6-0.1-0.9-0.2s-0.5-0.3-0.7-0.5s-0.3-0.4-0.4-0.7S344.5,386,344.6,385.7z M345.3,384.8
				l-0.1,1.3c0,0.2,0,0.4,0.1,0.6s0.2,0.4,0.3,0.5c0.1,0.1,0.3,0.3,0.5,0.3c0.2,0.1,0.4,0.1,0.6,0.1s0.4,0,0.6-0.1s0.4-0.2,0.5-0.3
				c0.2-0.1,0.3-0.3,0.4-0.5s0.2-0.4,0.2-0.6l0.1-1.3c0-0.2,0-0.4-0.1-0.6s-0.2-0.4-0.3-0.5c-0.1-0.1-0.3-0.3-0.5-0.3
				c-0.2-0.1-0.4-0.1-0.6-0.1s-0.4,0-0.6,0.1s-0.4,0.2-0.5,0.3c-0.2,0.1-0.3,0.3-0.4,0.5C345.4,384.3,345.3,384.5,345.3,384.8z"/>
			<path class="st11" d="M354,382.9l-0.4,4.9l-0.3,0.2l-0.1-0.7c-0.2,0.2-0.4,0.4-0.7,0.5s-0.5,0.2-0.8,0.2s-0.5-0.1-0.7-0.2
				s-0.4-0.2-0.6-0.4c-0.2-0.2-0.3-0.4-0.4-0.6s-0.1-0.5-0.1-0.7l0.3-3.1h0.7l-0.3,3.5c0,0.2,0,0.3,0.1,0.5c0.1,0.1,0.1,0.3,0.2,0.4
				s0.2,0.2,0.4,0.3c0.1,0.1,0.3,0.1,0.5,0.1s0.3,0,0.5-0.1s0.3-0.2,0.4-0.3c0.1-0.1,0.2-0.2,0.3-0.4c0.1-0.2,0.1-0.3,0.1-0.5
				l0.3-3.5L354,382.9L354,382.9z"/>
			<path class="st11" d="M358.9,383.5l-0.4,4.4h-0.7l0.4-4.5c-0.1-0.1-0.2-0.1-0.4-0.2c-0.1,0-0.3-0.1-0.4-0.1h-0.2
				c-0.2,0-0.4,0-0.6,0.1s-0.4,0.2-0.5,0.3c-0.1,0.1-0.3,0.3-0.4,0.5s-0.1,0.4-0.2,0.6l-0.3,3.2h-0.7l0.4-4.8l-0.5-0.1v-0.2l1.2,0.3
				v0.4c0.2-0.2,0.5-0.4,0.8-0.5s0.6-0.2,0.9-0.2s0.6,0.1,0.8,0.2C358.5,383.2,358.7,383.3,358.9,383.5z"/>
			<path class="st11" d="M362.3,382.9L362.3,382.9v0.3h-0.1c-0.2,0-0.4,0-0.6,0.1s-0.4,0.2-0.5,0.3c-0.1,0.1-0.3,0.3-0.4,0.5
				s-0.1,0.4-0.2,0.6l-0.3,3.2h-0.7l0.4-4.8l-0.5-0.1v-0.2l1.2,0.3v0.4c0.2-0.2,0.5-0.4,0.8-0.5C361.8,383,362,382.9,362.3,382.9z"
				/>
			<path class="st11" d="M365,382.9v0.3h-0.7l-0.3,3.9l-0.3,0.6h0.9v0.3h-1.3l0.4-4.8H363v-0.3h0.7l0.1-1.6l0.7-0.3l-0.2,1.9H365z"
				/>
			<path class="st11" d="M366.5,382.9l1.3,4l2-4h0.7c-0.4,0.8-0.8,1.6-1.2,2.4c-0.2,0.3-0.3,0.7-0.5,1s-0.3,0.7-0.5,1
				s-0.3,0.6-0.4,0.9s-0.2,0.5-0.3,0.7c-0.1,0.2-0.2,0.4-0.4,0.6s-0.3,0.3-0.5,0.4s-0.4,0.2-0.6,0.3c-0.2,0.1-0.4,0.1-0.7,0.1h-0.7
				V390h0.7c0.3,0,0.5-0.1,0.7-0.2s0.4-0.3,0.5-0.6c0.1-0.1,0.1-0.3,0.2-0.5s0.2-0.4,0.3-0.6c0.1-0.2,0.2-0.5,0.4-0.7L367,387
				l-1.2-3.8h-0.5v-0.3H366.5z"/>
		</g>
		<g class="st12">
			<path class="st11" d="M341.1,398.5L341.1,398.5c0.2,0,0.5,0,0.7-0.1s0.4-0.2,0.6-0.3c0.2-0.1,0.4-0.3,0.5-0.4
				c0.2-0.2,0.3-0.4,0.4-0.6l0.5,0.2c-0.3,0.4-0.7,0.8-1.1,1.1c-0.5,0.3-1,0.4-1.5,0.4H341c-0.4,0-0.8-0.1-1.1-0.2
				c-0.3-0.2-0.6-0.4-0.9-0.6c-0.2-0.3-0.4-0.6-0.5-0.9s-0.2-0.7-0.1-1.1l0.1-1c0-0.4,0.1-0.8,0.3-1.1c0.2-0.3,0.4-0.6,0.7-0.9
				c0.3-0.3,0.6-0.5,1-0.6s0.7-0.2,1.1-0.2h0.2c0.5,0,1,0.1,1.4,0.4s0.7,0.6,0.9,1.1l-0.5,0.2c-0.1-0.2-0.2-0.4-0.3-0.6
				s-0.3-0.3-0.4-0.4s-0.4-0.2-0.6-0.3c-0.2-0.1-0.4-0.1-0.7-0.1l0,0c-0.3,0-0.6,0.1-0.9,0.2s-0.5,0.3-0.8,0.5s-0.4,0.4-0.5,0.7
				c-0.1,0.3-0.2,0.6-0.3,0.9l-0.1,1.5c0,0.3,0,0.6,0.1,0.9s0.2,0.5,0.4,0.7c0.2,0.2,0.4,0.4,0.7,0.5
				C340.5,398.4,340.8,398.5,341.1,398.5z"/>
			<path class="st11" d="M345.7,392.1l-0.5,5.7l-0.3,0.6h0.9v0.3h-1.3l0.6-6.3h-0.5v-0.3L345.7,392.1z"/>
			<path class="st11" d="M350.8,393.7l-0.4,4.9l-0.3,0.2l-0.1-0.7c-0.2,0.2-0.4,0.4-0.7,0.5s-0.5,0.2-0.8,0.2s-0.5-0.1-0.7-0.2
				s-0.4-0.2-0.6-0.4c-0.2-0.2-0.3-0.4-0.4-0.6s-0.1-0.5-0.1-0.7l0.3-3.1h0.7l-0.3,3.5c0,0.2,0,0.3,0.1,0.5c0.1,0.1,0.1,0.3,0.2,0.4
				s0.2,0.2,0.4,0.3c0.1,0.1,0.3,0.1,0.5,0.1s0.3,0,0.5-0.1s0.3-0.2,0.4-0.3c0.1-0.1,0.2-0.2,0.3-0.4c0.1-0.2,0.1-0.3,0.1-0.5
				l0.3-3.5L350.8,393.7L350.8,393.7z"/>
			<path class="st11" d="M353.9,393.7c0.3,0,0.6,0.1,0.9,0.2s0.5,0.3,0.7,0.5s0.3,0.4,0.4,0.7c0.1,0.3,0.1,0.6,0.1,0.9v0.6
				c0,0.3-0.1,0.6-0.2,0.9s-0.3,0.5-0.5,0.7s-0.5,0.4-0.8,0.5s-0.6,0.2-0.9,0.2s-0.7-0.1-1-0.2s-0.5-0.3-0.7-0.6l-0.3,0.8l-0.3-0.2
				l0.5-6.2h-0.5v-0.3h1.2l-0.2,2.2c0.2-0.2,0.5-0.3,0.7-0.5C353.3,393.8,353.6,393.7,353.9,393.7z M355.2,396.9l0.1-1.3
				c0-0.2,0-0.4-0.1-0.6s-0.2-0.4-0.3-0.5c-0.1-0.1-0.3-0.3-0.5-0.3c-0.2-0.1-0.4-0.1-0.6-0.1s-0.4,0-0.6,0.1s-0.4,0.2-0.5,0.3
				c-0.2,0.1-0.3,0.3-0.4,0.5s-0.2,0.4-0.2,0.6l-0.1,1.3c0,0.2,0,0.4,0.1,0.6s0.2,0.4,0.3,0.5c0.1,0.1,0.3,0.3,0.5,0.3
				c0.2,0.1,0.4,0.1,0.6,0.1s0.4,0,0.6-0.1s0.4-0.2,0.5-0.3c0.2-0.1,0.3-0.3,0.4-0.5S355.2,397.1,355.2,396.9z"/>
		</g>
		<g class="st12">
			<path class="st11" d="M421.4,308.6l1.6,0.3c0.2,0,0.4,0.1,0.5,0.2c0.2,0.1,0.3,0.2,0.4,0.4c0.1,0.2,0.2,0.3,0.2,0.5
				c0.1,0.2,0.1,0.4,0.1,0.6l0,0c0,0.2-0.1,0.5-0.2,0.7s-0.3,0.4-0.4,0.6s-0.4,0.3-0.6,0.4s-0.5,0.1-0.7,0.1h-2.7v-0.3h2.5
				c0.2,0,0.3,0,0.5-0.1s0.3-0.2,0.4-0.3c0.1-0.1,0.2-0.3,0.3-0.4c0.1-0.2,0.1-0.3,0.1-0.5l0,0c0-0.2,0-0.3,0-0.4s-0.1-0.3-0.2-0.4
				s-0.2-0.2-0.3-0.3s-0.3-0.1-0.4-0.2l-1.6-0.3c-0.2,0-0.4-0.1-0.5-0.2c-0.2-0.1-0.3-0.2-0.4-0.4c-0.1-0.2-0.2-0.3-0.3-0.5
				c-0.1-0.2-0.1-0.4-0.1-0.6s0.1-0.5,0.2-0.7s0.3-0.4,0.4-0.6c0.2-0.2,0.4-0.3,0.6-0.4s0.4-0.1,0.7-0.1h2.7v0.3h-2.5
				c-0.2,0-0.3,0-0.5,0.1s-0.3,0.2-0.4,0.3c-0.1,0.1-0.2,0.3-0.3,0.4s-0.1,0.3-0.1,0.5c0,0.1,0,0.3,0,0.4s0.1,0.3,0.2,0.4
				s0.2,0.2,0.3,0.3C421.1,308.5,421.2,308.5,421.4,308.6z"/>
			<path class="st11" d="M429.1,307.3l-0.1,1.6c0,0.3-0.1,0.5-0.3,0.7s-0.4,0.3-0.7,0.4l-1.6,0.4v-0.3l1.1-0.3
				c0.2,0,0.4-0.2,0.5-0.3c0.1-0.2,0.2-0.3,0.2-0.6l0.1-1.4h-1.2c-0.2,0-0.3,0-0.5,0.1s-0.3,0.2-0.4,0.3c-0.1,0.1-0.2,0.2-0.3,0.4
				c-0.1,0.2-0.1,0.3-0.1,0.5l-0.2,2c0,0.2,0,0.3,0,0.5c0.1,0.1,0.1,0.3,0.2,0.4s0.2,0.2,0.4,0.3c0.1,0.1,0.3,0.1,0.5,0.1h1.6v0.3
				h-1.6c-0.3,0-0.5,0-0.7-0.1s-0.4-0.2-0.6-0.4c-0.2-0.2-0.3-0.4-0.4-0.6s-0.1-0.5-0.1-0.7l0.1-1.2c0-0.3,0.1-0.5,0.2-0.7
				s0.3-0.4,0.5-0.6s0.4-0.3,0.6-0.4s0.5-0.2,0.8-0.2h2V307.3z"/>
			<path class="st11" d="M432.5,307.3L432.5,307.3v0.3h-0.1c-0.2,0-0.4,0-0.6,0.1s-0.4,0.2-0.5,0.3c-0.1,0.1-0.3,0.3-0.4,0.5
				s-0.1,0.4-0.2,0.6l-0.3,3.2h-0.7l0.4-4.8l-0.5-0.1v-0.2l1.2,0.3v0.4c0.2-0.2,0.5-0.4,0.8-0.5
				C431.9,307.4,432.2,307.3,432.5,307.3z"/>
			<path class="st11" d="M436.8,307.3l-2,5h-0.3l-1.1-4.8h-0.5v-0.3h1.1l0.9,3.9l1.6-3.9L436.8,307.3L436.8,307.3z"/>
			<path class="st11" d="M436.9,312.4l0.4-5h0.7l-0.4,5H436.9z M437.9,306.6l-0.4-0.8h0.7l-0.1,0.8H437.9z"/>
			<path class="st11" d="M442.3,311l0.5,0.2c-0.1,0.2-0.2,0.3-0.4,0.5c-0.1,0.1-0.3,0.3-0.5,0.4s-0.4,0.2-0.6,0.2s-0.4,0.1-0.6,0.1
				c-0.3,0-0.6-0.1-0.9-0.2s-0.5-0.3-0.7-0.5s-0.3-0.4-0.4-0.7c-0.1-0.3-0.1-0.6-0.1-0.9v-0.6c0-0.3,0.1-0.6,0.3-0.9
				c0.1-0.3,0.3-0.5,0.5-0.7s0.5-0.4,0.8-0.5s0.6-0.2,0.9-0.2c0.4,0,0.8,0.1,1.1,0.3c0.3,0.2,0.6,0.5,0.7,0.8l-0.5,0.2
				c-0.1-0.3-0.2-0.6-0.5-0.8s-0.5-0.3-0.9-0.3c-0.2,0-0.4,0-0.6,0.1s-0.4,0.2-0.5,0.3c-0.2,0.1-0.3,0.3-0.4,0.5s-0.2,0.4-0.2,0.6
				l-0.1,1.3c0,0.2,0,0.4,0.1,0.6s0.2,0.4,0.3,0.5c0.1,0.1,0.3,0.3,0.5,0.3c0.2,0.1,0.4,0.1,0.6,0.1s0.3,0,0.5-0.1s0.3-0.1,0.4-0.2
				s0.3-0.2,0.4-0.3C442.2,311.3,442.2,311.1,442.3,311z"/>
			<path class="st11" d="M447.6,307.3l-0.1,1.6c0,0.3-0.1,0.5-0.3,0.7s-0.4,0.3-0.7,0.4l-1.6,0.4v-0.3l1.1-0.3
				c0.2,0,0.4-0.2,0.5-0.3c0.1-0.2,0.2-0.3,0.2-0.6l0.1-1.4h-1.2c-0.2,0-0.3,0-0.5,0.1s-0.3,0.2-0.4,0.3c-0.1,0.1-0.2,0.2-0.3,0.4
				c-0.1,0.2-0.1,0.3-0.1,0.5l-0.2,2c0,0.2,0,0.3,0,0.5c0.1,0.1,0.1,0.3,0.2,0.4s0.2,0.2,0.4,0.3c0.1,0.1,0.3,0.1,0.5,0.1h1.6v0.3
				h-1.6c-0.3,0-0.5,0-0.7-0.1s-0.4-0.2-0.6-0.4c-0.2-0.2-0.3-0.4-0.4-0.6s-0.1-0.5-0.1-0.7l0.1-1.2c0-0.3,0.1-0.5,0.2-0.7
				s0.3-0.4,0.5-0.6s0.4-0.3,0.6-0.4s0.5-0.2,0.8-0.2h2V307.3z"/>
		</g>
		<g class="st12">
			<path class="st11" d="M424.7,316.5l-0.6,6.6h-0.7l0.3-3.2h-3.3l-0.3,3.2h-0.7l0.6-6.6h0.7l-0.3,3.2h3.3l0.3-3.2H424.7z"/>
			<path class="st11" d="M429.3,318.1l-0.4,4.9l-0.3,0.2l-0.1-0.7c-0.2,0.2-0.4,0.4-0.7,0.5c-0.3,0.1-0.5,0.2-0.8,0.2
				s-0.5-0.1-0.7-0.2s-0.4-0.2-0.6-0.4c-0.2-0.2-0.3-0.4-0.4-0.6s-0.1-0.5-0.1-0.7l0.3-3.1h0.7l-0.3,3.5c0,0.2,0,0.3,0.1,0.5
				c0.1,0.1,0.1,0.3,0.2,0.4s0.2,0.2,0.4,0.3c0.1,0.1,0.3,0.1,0.5,0.1s0.3,0,0.5-0.1s0.3-0.2,0.4-0.3c0.1-0.1,0.2-0.2,0.3-0.4
				c0.1-0.2,0.1-0.3,0.1-0.5l0.3-3.5L429.3,318.1L429.3,318.1z"/>
			<path class="st11" d="M432.5,318.1c0.3,0,0.6,0.1,0.9,0.2s0.5,0.3,0.7,0.5s0.3,0.4,0.4,0.7c0.1,0.3,0.1,0.6,0.1,0.9v0.6
				c0,0.3-0.1,0.6-0.2,0.9s-0.3,0.5-0.5,0.7s-0.5,0.4-0.8,0.5s-0.6,0.2-0.9,0.2s-0.7-0.1-1-0.2s-0.5-0.3-0.7-0.6l-0.3,0.8l-0.3-0.2
				l0.5-6.2h-0.5v-0.3h1.2l-0.2,2.2c0.2-0.2,0.5-0.3,0.7-0.5C431.9,318.2,432.2,318.1,432.5,318.1z M433.8,321.3l0.1-1.3
				c0-0.2,0-0.4-0.1-0.6s-0.2-0.4-0.3-0.5c-0.1-0.1-0.3-0.3-0.5-0.3c-0.2-0.1-0.4-0.1-0.6-0.1s-0.4,0-0.6,0.1s-0.4,0.2-0.5,0.3
				c-0.2,0.1-0.3,0.3-0.4,0.5s-0.2,0.4-0.2,0.6l-0.1,1.3c0,0.2,0,0.4,0.1,0.6s0.2,0.4,0.3,0.5c0.1,0.1,0.3,0.3,0.5,0.3
				c0.2,0.1,0.4,0.1,0.6,0.1s0.4,0,0.6-0.1s0.4-0.2,0.5-0.3c0.2-0.1,0.3-0.3,0.4-0.5C433.7,321.7,433.7,321.5,433.8,321.3z"/>
		</g>
		<g class="st12">
			<path class="st11" d="M353.9,293.9L353.9,293.9c0.2,0,0.3,0,0.5-0.1c0.1,0,0.3-0.1,0.4-0.2s0.2-0.2,0.3-0.3
				c0.1-0.1,0.2-0.2,0.3-0.4l0.3,0.1c-0.2,0.3-0.4,0.5-0.7,0.7c-0.3,0.2-0.6,0.3-1,0.3h-0.1c-0.3,0-0.5,0-0.7-0.2
				c-0.2-0.1-0.4-0.2-0.6-0.4s-0.3-0.4-0.4-0.6s-0.1-0.5-0.1-0.7l0.1-0.6c0-0.3,0.1-0.5,0.2-0.7s0.3-0.4,0.5-0.6s0.4-0.3,0.6-0.4
				s0.5-0.2,0.7-0.2h0.1c0.4,0,0.7,0.1,1,0.3c0.3,0.2,0.5,0.4,0.6,0.7l-0.3,0.2c0-0.1-0.1-0.3-0.2-0.4s-0.2-0.2-0.3-0.3
				c-0.1-0.1-0.2-0.1-0.4-0.2c-0.1,0-0.3-0.1-0.4-0.1l0,0c-0.2,0-0.4,0-0.6,0.1s-0.4,0.2-0.5,0.3c-0.1,0.1-0.3,0.3-0.4,0.5
				s-0.2,0.4-0.2,0.6l-0.1,1c0,0.2,0,0.4,0.1,0.6s0.2,0.3,0.3,0.5c0.1,0.1,0.3,0.2,0.4,0.3C353.5,293.9,353.7,293.9,353.9,293.9z"/>
			<path class="st11" d="M356.2,292.7v-0.4c0-0.2,0.1-0.4,0.2-0.6s0.2-0.3,0.4-0.5c0.1-0.1,0.3-0.2,0.5-0.3c0.2-0.1,0.4-0.1,0.6-0.1
				s0.4,0,0.6,0.1s0.3,0.2,0.4,0.3s0.2,0.3,0.3,0.5c0.1,0.2,0.1,0.4,0.1,0.6v0.4c0,0.2-0.1,0.4-0.2,0.6s-0.2,0.3-0.4,0.5
				c-0.1,0.1-0.3,0.2-0.5,0.3s-0.4,0.1-0.6,0.1s-0.4,0-0.6-0.1s-0.3-0.2-0.4-0.3c-0.1-0.1-0.2-0.3-0.3-0.5
				C356.2,293.1,356.2,292.9,356.2,292.7z M356.7,292l-0.1,0.9c0,0.1,0,0.3,0,0.4s0.1,0.2,0.2,0.3s0.2,0.2,0.3,0.2
				c0.1,0.1,0.3,0.1,0.4,0.1s0.3,0,0.4-0.1s0.2-0.1,0.3-0.2c0.1-0.1,0.2-0.2,0.3-0.3c0.1-0.1,0.1-0.3,0.1-0.4l0.1-0.9
				c0-0.1,0-0.3,0-0.4s-0.1-0.2-0.2-0.3c-0.1-0.1-0.2-0.2-0.3-0.2s-0.3-0.1-0.4-0.1s-0.3,0-0.4,0.1s-0.2,0.1-0.3,0.2
				c-0.1,0.1-0.2,0.2-0.3,0.3C356.8,291.7,356.7,291.9,356.7,292z"/>
			<path class="st11" d="M361.1,290.8v0.2h-0.4l-0.2,2.6l-0.2,0.4h0.6v0.2H360l0.3-3.2h-0.4v-0.2h0.4l0.1-1l0.5-0.2l-0.1,1.2H361.1z
				"/>
			<path class="st11" d="M362.8,290.8v0.2h-0.4l-0.2,2.6L362,294h0.6v0.2h-0.9l0.3-3.2h-0.4v-0.2h0.4l0.1-1l0.5-0.2l-0.1,1.2H362.8z
				"/>
			<path class="st11" d="M363.5,290.8h1.1c0.1,0,0.3,0,0.4,0.1s0.2,0.1,0.3,0.2c0.1,0.1,0.2,0.2,0.2,0.3s0.1,0.3,0,0.4l-0.2,2.2
				l-0.2,0.1l-0.1-0.3c-0.1,0.1-0.2,0.2-0.4,0.2c-0.1,0.1-0.3,0.1-0.4,0.1h-0.7c-0.2,0-0.3-0.1-0.5-0.2s-0.2-0.3-0.2-0.4v-0.3v-0.1
				V293c0-0.1,0-0.2,0.1-0.3c0-0.1,0.1-0.2,0.2-0.3c0.1-0.1,0.2-0.2,0.3-0.2c0.1-0.1,0.2-0.1,0.3-0.1l0.6-0.2c0.1,0,0.2,0,0.3,0
				c0.2,0,0.3,0.1,0.5,0.2v-0.4c0-0.1,0-0.2,0-0.2c0-0.1-0.1-0.1-0.1-0.2s-0.1-0.1-0.2-0.1s-0.1,0-0.2,0h-1.1L363.5,290.8z
				 M363.7,293.9h0.6c0.1,0,0.2,0,0.2,0s0.1-0.1,0.2-0.1s0.1-0.1,0.1-0.2s0.1-0.1,0.1-0.2l0.1-0.7c0-0.1,0-0.2,0-0.2
				s-0.1-0.1-0.1-0.2s-0.1-0.1-0.2-0.1s-0.1,0-0.2,0s-0.1,0-0.2,0l-0.4,0.1c-0.2,0-0.3,0.1-0.4,0.3c-0.1,0.1-0.2,0.3-0.2,0.5
				c0,0.1,0,0.1,0,0.2l0.1,0.7c0,0.1,0,0.1,0.1,0.2C363.6,293.9,363.7,293.9,363.7,293.9z"/>
			<path class="st11" d="M369.1,290.8l0.2,0.1l-0.3,3.3c0,0.2-0.1,0.4-0.2,0.6s-0.2,0.3-0.4,0.5c-0.1,0.1-0.3,0.2-0.5,0.3
				c-0.2,0.1-0.4,0.1-0.6,0.1H366v-0.2h1.3c0.1,0,0.3,0,0.4-0.1s0.2-0.1,0.3-0.2c0.1-0.1,0.2-0.2,0.3-0.3c0.1-0.1,0.1-0.3,0.1-0.4
				l0.1-0.7c-0.1,0.1-0.3,0.2-0.5,0.3c-0.2,0.1-0.4,0.1-0.6,0.1s-0.4,0-0.6-0.1s-0.3-0.2-0.4-0.3c-0.1-0.1-0.2-0.3-0.3-0.5
				c-0.1-0.2-0.1-0.4-0.1-0.6v-0.4c0-0.2,0.1-0.4,0.2-0.6s0.2-0.3,0.4-0.5c0.1-0.1,0.3-0.2,0.5-0.3c0.2-0.1,0.4-0.1,0.6-0.1
				s0.4,0,0.6,0.1s0.3,0.2,0.5,0.4L369.1,290.8z M368.6,292.9l0.1-0.9c0-0.1,0-0.3,0-0.4s-0.1-0.2-0.2-0.3c-0.1-0.1-0.2-0.2-0.3-0.2
				c-0.1-0.1-0.3-0.1-0.4-0.1s-0.3,0-0.4,0.1s-0.2,0.1-0.3,0.2c-0.1,0.1-0.2,0.2-0.3,0.3c-0.1,0.1-0.1,0.3-0.1,0.4l-0.1,0.9
				c0,0.1,0,0.3,0,0.4s0.1,0.2,0.2,0.3s0.2,0.2,0.3,0.2c0.1,0.1,0.3,0.1,0.4,0.1s0.3,0,0.4-0.1s0.2-0.1,0.3-0.2s0.2-0.2,0.3-0.3
				S368.6,293.1,368.6,292.9z"/>
			<path class="st11" d="M372.4,290.8l-0.1,1.1c0,0.2-0.1,0.3-0.2,0.5c-0.1,0.1-0.3,0.2-0.4,0.3l-1.1,0.3v-0.2l0.8-0.2
				c0.1,0,0.3-0.1,0.3-0.2c0.1-0.1,0.1-0.2,0.2-0.4l0.1-0.9h-0.8c-0.1,0-0.2,0-0.3,0.1c-0.1,0-0.2,0.1-0.3,0.2s-0.1,0.2-0.2,0.3
				s-0.1,0.2-0.1,0.3l-0.1,1.3c0,0.1,0,0.2,0,0.3c0,0.1,0.1,0.2,0.2,0.3c0.1,0.1,0.2,0.1,0.2,0.2c0.1,0,0.2,0.1,0.3,0.1h1.1v0.2
				h-1.1c-0.2,0-0.3,0-0.5-0.1s-0.3-0.2-0.4-0.3c-0.1-0.1-0.2-0.3-0.2-0.4c-0.1-0.2-0.1-0.3-0.1-0.5l0.1-0.8c0-0.2,0.1-0.3,0.1-0.5
				s0.2-0.3,0.3-0.4c0.1-0.1,0.3-0.2,0.4-0.3c0.2-0.1,0.3-0.1,0.5-0.1h1.3V290.8z"/>
		</g>
		<g class="st12">
			<path class="st11" d="M354.9,296.9h0.2l-1.8,4.4h-0.2l-1-4.4h0.5l0.8,3.6L354.9,296.9z"/>
			<path class="st11" d="M355.1,301.3l0.3-3.4h0.5l-0.3,3.4H355.1z M355.7,297.5l-0.2-0.6h0.5v0.6H355.7z"/>
			<path class="st11" d="M357,296.9l-0.3,3.8l-0.2,0.4h0.6v0.2h-0.9l0.4-4.2h-0.4v-0.2L357,296.9z"/>
			<path class="st11" d="M358.4,296.9l-0.3,3.8l-0.2,0.4h0.6v0.2h-0.9l0.4-4.2h-0.4v-0.2L358.4,296.9z"/>
			<path class="st11" d="M361.8,298l-0.1,1.1c0,0.2-0.1,0.3-0.2,0.5c-0.1,0.1-0.3,0.2-0.4,0.3l-1.1,0.3V300l0.8-0.2
				c0.1,0,0.3-0.1,0.3-0.2c0.1-0.1,0.1-0.2,0.2-0.4l0.1-0.9h-0.8c-0.1,0-0.2,0-0.3,0.1c-0.1,0-0.2,0.1-0.3,0.2s-0.1,0.2-0.2,0.3
				c-0.1,0.1-0.1,0.2-0.1,0.3l-0.1,1.3c0,0.1,0,0.2,0,0.3c0,0.1,0.1,0.2,0.2,0.3c0.1,0.1,0.2,0.1,0.2,0.2s0.2,0.1,0.3,0.1h1.1v0.2
				h-1.1c-0.2,0-0.3,0-0.5-0.1c-0.1-0.1-0.3-0.2-0.4-0.3c-0.1-0.1-0.2-0.3-0.2-0.4c-0.1-0.2-0.1-0.3-0.1-0.5l0.1-0.8
				c0-0.2,0.1-0.3,0.1-0.5s0.2-0.3,0.3-0.4c0.1-0.1,0.3-0.2,0.4-0.3c0.2-0.1,0.3-0.1,0.5-0.1h1.3V298z"/>
		</g>
		<g class="st12">
			<path class="st11" d="M63.7,187.7c-0.1,0.3-0.2,0.5-0.4,0.7s-0.4,0.4-0.7,0.6c-0.3,0.1-0.6,0.2-1,0.2s-0.7-0.1-1-0.2
				c-0.3-0.1-0.5-0.3-0.7-0.6c-0.2-0.2-0.3-0.5-0.4-0.7c-0.1-0.3-0.1-0.5-0.1-0.8s0-0.5,0.1-0.8s0.2-0.5,0.4-0.7s0.4-0.4,0.7-0.6
				s0.6-0.2,1-0.2s0.7,0.1,1,0.2s0.5,0.3,0.7,0.6c0.2,0.2,0.3,0.5,0.4,0.7c0.1,0.3,0.1,0.5,0.1,0.8S63.8,187.4,63.7,187.7z
				 M63.1,186.2c-0.1-0.2-0.2-0.4-0.3-0.6s-0.3-0.3-0.5-0.4s-0.4-0.1-0.6-0.1s-0.4,0-0.6,0.1s-0.3,0.2-0.5,0.4s-0.2,0.3-0.3,0.6
				c-0.1,0.2-0.1,0.4-0.1,0.7s0,0.5,0.1,0.7s0.2,0.4,0.3,0.6c0.1,0.2,0.3,0.3,0.5,0.4s0.4,0.1,0.6,0.1s0.4,0,0.6-0.1
				s0.3-0.2,0.5-0.4c0.1-0.2,0.2-0.3,0.3-0.6s0.1-0.4,0.1-0.7C63.2,186.6,63.2,186.4,63.1,186.2z"/>
			<path class="st11" d="M66.4,185.9H67l-0.1,0.4c-0.4,1.2-0.8,2.1-1,2.7c-0.1,0.4-0.3,0.6-0.3,0.8c-0.1,0.2-0.1,0.3-0.2,0.4
				c-0.1,0.1-0.2,0.1-0.3,0.2s-0.2,0-0.4,0c0,0-0.1,0-0.2,0l0,0v-0.5c0.1,0,0.2,0.1,0.3,0.1c0.1,0,0.1,0,0.2,0c0,0,0.1,0,0.1-0.1
				c0,0,0.1-0.1,0.1-0.2s0.1-0.2,0.2-0.4l-1.2-3.2h0.6l0.8,2.6l0,0L66.4,185.9z"/>
			<path class="st11" d="M67.2,186.9c0.1-0.2,0.2-0.4,0.3-0.5c0.1-0.2,0.3-0.3,0.5-0.4s0.4-0.1,0.6-0.1s0.5,0,0.6,0.1
				s0.3,0.2,0.5,0.4s0.2,0.3,0.3,0.5c0.1,0.2,0.1,0.4,0.1,0.6s0,0.4-0.1,0.6s-0.1,0.4-0.3,0.5s-0.3,0.3-0.5,0.4s-0.4,0.1-0.6,0.1
				s-0.5,0-0.6-0.1s-0.3-0.2-0.5-0.4c-0.1-0.2-0.2-0.3-0.3-0.5c-0.1-0.2-0.1-0.4-0.1-0.6S67.2,187.1,67.2,186.9z M67.7,187.9
				c0,0.1,0.1,0.3,0.1,0.4s0.2,0.2,0.3,0.3c0.1,0.1,0.3,0.1,0.5,0.1s0.3,0,0.5-0.1c0.1-0.1,0.2-0.2,0.3-0.3s0.1-0.3,0.1-0.4
				c0-0.1,0-0.3,0-0.4s0-0.2,0-0.4s-0.1-0.3-0.1-0.4s-0.2-0.2-0.3-0.3c-0.1-0.1-0.3-0.1-0.5-0.1s-0.3,0-0.5,0.1
				c-0.1,0.1-0.2,0.2-0.3,0.3s-0.1,0.3-0.1,0.4c0,0.1,0,0.3,0,0.4S67.7,187.7,67.7,187.9z"/>
			<path class="st11" d="M72,187.7h-1.5v-0.5H72V187.7z"/>
			<path class="st11" d="M73.4,189.1h-0.6v-4.3h0.6V189.1z"/>
			<path class="st11" d="M76.1,186.8c0-0.1,0-0.1,0-0.2c0-0.1,0-0.1-0.1-0.2s-0.1-0.1-0.2-0.1s-0.2-0.1-0.4-0.1c-0.1,0-0.1,0-0.2,0
				s-0.1,0-0.2,0.1c-0.1,0-0.1,0.1-0.2,0.1c0,0.1-0.1,0.1-0.1,0.2c0,0.1,0,0.2,0.1,0.3s0.2,0.1,0.5,0.2l0.5,0.1
				c0.3,0.1,0.6,0.2,0.7,0.3s0.2,0.3,0.2,0.5c0,0.3-0.1,0.6-0.3,0.8c-0.2,0.2-0.5,0.3-0.9,0.3c-0.3,0-0.5,0-0.7-0.1
				s-0.3-0.2-0.4-0.3s-0.1-0.2-0.2-0.3c0-0.1,0-0.2-0.1-0.4h0.5c0,0.1,0,0.2,0,0.2c0,0.1,0.1,0.1,0.1,0.2s0.1,0.1,0.3,0.2
				c0.1,0,0.3,0.1,0.4,0.1c0.2,0,0.4,0,0.5-0.1s0.2-0.2,0.2-0.4c0-0.1,0-0.2-0.1-0.3s-0.3-0.1-0.5-0.2l-0.6-0.1
				c-0.2-0.1-0.4-0.1-0.5-0.3c-0.1-0.1-0.2-0.3-0.2-0.5s0-0.3,0.1-0.4s0.2-0.2,0.3-0.3c0.2-0.2,0.5-0.2,0.8-0.2s0.5,0,0.6,0.1
				c0.2,0.1,0.3,0.2,0.4,0.3s0.1,0.2,0.2,0.3c0,0.1,0,0.2,0,0.3h-0.5V186.8z"/>
			<path class="st11" d="M80,188.1c0,0.1-0.1,0.2-0.1,0.4c0,0.1-0.1,0.2-0.2,0.3s-0.2,0.2-0.2,0.2c-0.1,0.1-0.2,0.1-0.3,0.2
				s-0.3,0.1-0.5,0.1c-0.4,0-0.8-0.1-1-0.4s-0.4-0.7-0.4-1.1c0-0.2,0-0.5,0.1-0.7s0.2-0.4,0.3-0.6c0.1-0.2,0.3-0.3,0.5-0.4
				s0.4-0.1,0.7-0.1c0.4,0,0.8,0.2,1,0.5s0.3,0.8,0.3,1.3h-2.3c0,0.3,0.1,0.6,0.2,0.8c0.2,0.2,0.4,0.3,0.7,0.3c0.1,0,0.2,0,0.3-0.1
				s0.2-0.1,0.3-0.2c0.1-0.1,0.2-0.3,0.2-0.4H80V188.1z M79.5,187.2c0-0.1,0-0.3-0.1-0.4c0-0.1-0.1-0.2-0.1-0.3s-0.2-0.2-0.3-0.2
				c-0.1,0-0.2-0.1-0.4-0.1c-0.1,0-0.2,0-0.3,0.1s-0.2,0.1-0.3,0.2c-0.1,0.1-0.1,0.2-0.2,0.3s-0.1,0.2-0.1,0.4H79.5z"/>
			<path class="st11" d="M82.5,185.9h0.6l-0.1,0.4c-0.4,1.2-0.8,2.1-1,2.7c-0.1,0.4-0.3,0.6-0.3,0.8c-0.1,0.2-0.1,0.3-0.2,0.4
				c-0.1,0.1-0.2,0.1-0.3,0.2s-0.2,0-0.4,0c0,0-0.1,0-0.2,0l0,0v-0.5c0.1,0,0.2,0.1,0.3,0.1c0.1,0,0.1,0,0.2,0c0,0,0.1,0,0.1-0.1
				c0,0,0.1-0.1,0.1-0.2s0.1-0.2,0.2-0.4l-1.2-3.2h0.6l0.8,2.6l0,0L82.5,185.9z"/>
			<path class="st11" d="M83.6,185.3v-0.6h0.5v0.6H83.6z M84.1,189.1h-0.5V186h0.5V189.1z"/>
			<path class="st11" d="M87.4,189.1h-0.5v-1.9c0-0.3,0-0.5-0.1-0.6s-0.3-0.2-0.5-0.2c-0.1,0-0.2,0-0.3,0c-0.1,0-0.2,0.1-0.3,0.2
				s-0.2,0.2-0.2,0.3c-0.1,0.1-0.1,0.3-0.1,0.5v1.7h-0.5V186h0.5v0.4l0,0c0-0.1,0.1-0.1,0.1-0.2c0-0.1,0.1-0.1,0.2-0.2
				c0.1-0.1,0.2-0.1,0.3-0.1s0.2-0.1,0.3-0.1c0.1,0,0.3,0,0.4,0s0.2,0.1,0.4,0.2c0.1,0.1,0.2,0.2,0.3,0.3c0.1,0.1,0.1,0.3,0.1,0.5
				v2.3H87.4z"/>
			<path class="st11" d="M90.6,189.1H90v-4.3h2c0.2,0,0.4,0,0.5,0.1s0.3,0.1,0.4,0.2c0.1,0.1,0.2,0.2,0.3,0.4
				c0.1,0.2,0.1,0.3,0.1,0.6c0,0.2,0,0.3-0.1,0.4c0,0.1-0.1,0.2-0.1,0.3s-0.1,0.1-0.2,0.2c-0.1,0.1-0.1,0.1-0.2,0.2
				c0.1,0,0.1,0.1,0.2,0.1s0.1,0.1,0.1,0.1c0,0.1,0.1,0.1,0.1,0.2c0,0.1,0,0.2,0.1,0.4v0.8c0,0.1,0,0.2,0,0.3s0.1,0.1,0.2,0.2v0.1
				h-0.7c0-0.1,0-0.1-0.1-0.2c0-0.1,0-0.2,0-0.3s0-0.2,0-0.3s0-0.2,0-0.2c0-0.1,0-0.2,0-0.3s-0.1-0.2-0.1-0.2
				c-0.1-0.1-0.1-0.1-0.2-0.2s-0.2-0.1-0.4-0.1h-1.4L90.6,189.1L90.6,189.1z M90.6,186.7H92c0.1,0,0.2,0,0.3,0
				c0.1,0,0.2-0.1,0.3-0.1c0.1-0.1,0.1-0.1,0.2-0.2c0-0.1,0.1-0.2,0.1-0.4s0-0.3-0.1-0.4c-0.1-0.1-0.1-0.2-0.2-0.2s-0.2-0.1-0.2-0.1
				c-0.1,0-0.2,0-0.3,0h-1.5C90.6,185.3,90.6,186.7,90.6,186.7z"/>
			<path class="st11" d="M96.8,189.1h-0.5v-0.4l0,0c-0.1,0.2-0.2,0.3-0.4,0.4c-0.2,0.1-0.3,0.1-0.5,0.1c-0.3,0-0.5-0.1-0.6-0.2
				c-0.2-0.1-0.3-0.2-0.4-0.4s-0.2-0.4-0.2-0.6c0-0.2-0.1-0.4-0.1-0.6c0-0.5,0.1-0.8,0.4-1.1s0.6-0.4,1-0.4c0.1,0,0.3,0,0.4,0.1
				s0.2,0.1,0.3,0.1c0.1,0.1,0.1,0.1,0.2,0.2s0.1,0.1,0.1,0.2l0,0l0,0v-1.6H97v4.2H96.8z M94.8,188.4c0.1,0.2,0.4,0.3,0.6,0.3
				c0.1,0,0.2,0,0.3-0.1c0.1,0,0.2-0.1,0.3-0.2s0.2-0.2,0.2-0.3c0.1-0.1,0.1-0.3,0.1-0.5s0-0.3,0-0.5s-0.1-0.3-0.1-0.4
				s-0.1-0.2-0.3-0.3c-0.1-0.1-0.3-0.1-0.4-0.1c-0.2,0-0.3,0-0.5,0.1s-0.2,0.2-0.3,0.3c-0.1,0.1-0.1,0.2-0.1,0.4c0,0.1,0,0.3,0,0.4
				C94.6,187.8,94.7,188.1,94.8,188.4z"/>
		</g>
		<g id="Layer_2_1_">
			<circle class="st13" cx="410.5" cy="315.2" r="2.7"/>
			<circle class="st13" cx="403.6" cy="269.7" r="2.7"/>
			<circle class="st13" cx="355.6" cy="308.7" r="2.7"/>
			<circle class="st13" cx="272.6" cy="236.7" r="2.7"/>
			<circle class="st13" cx="330.6" cy="387.5" r="2.7"/>
		</g>
	</g>
</g>
</svg>
